<?xml version="1.0" standalone="no"?>
<!DOCTYPE svg PUBLIC "-//W3C//DTD SVG 20010904//EN"
 "http://www.w3.org/TR/2001/REC-SVG-20010904/DTD/svg10.dtd">
<svg version="1.0" xmlns="http://www.w3.org/2000/svg"
 width="165.000000pt" height="165.000000pt" viewBox="0 0 165.000000 165.000000"
 preserveAspectRatio="xMidYMid meet">
<metadata>
Created by potrace 1.14, written by Peter Selinger 2001-2017
</metadata>
<g transform="translate(0.000000,165.000000) scale(0.100000,-0.100000)"
fill="#000000" stroke="none">
<path d="M695 1544 c-33 -8 -96 -32 -140 -54 -251 -122 -405 -367 -405 -645 0
-171 46 -307 151 -447 64 -86 141 -147 254 -203 204 -101 423 -100 635 2 82
39 108 59 186 137 147 148 214 306 214 506 0 336 -225 624 -551 704 -81 20
-261 20 -344 0z m383 -840 c26 -18 28 -46 11 -159 -10 -64 -14 -75 -31 -75
-19 0 -19 4 -12 63 14 106 12 141 -9 145 -11 2 -30 -6 -43 -19 -25 -23 -37
-60 -49 -141 -5 -39 -10 -48 -26 -48 -10 0 -19 3 -19 8 0 4 7 52 15 107 8 55
15 106 15 113 0 6 9 12 20 12 11 0 20 -7 20 -15 0 -12 6 -11 33 5 39 24 46 24
75 4z m239 -8 c8 -7 9 -16 3 -25 -7 -12 -11 -12 -24 -2 -24 20 -80 10 -84 -15
-2 -16 8 -25 48 -43 36 -16 52 -30 56 -48 11 -43 -7 -76 -50 -92 -33 -13 -44
-13 -80 0 -42 14 -59 47 -21 41 76 -13 92 -13 104 2 20 24 7 44 -46 69 -42 19
-48 27 -51 56 -4 37 17 67 52 74 29 6 79 -3 93 -17z"/>
</g>
</svg>
